<svg width="184" height="28" viewBox="0 0 184 28" fill="none" xmlns="http://www.w3.org/2000/svg">
<path d="M1.49797 20.76C5.0722 19.8996 8.50501 18.4055 11.9501 17.1539C18.1785 14.891 24.4399 12.5517 30.8166 10.7331C51.1512 4.93368 72.2281 3.73699 93.2653 4.22434C117.717 4.79078 141.82 9.80954 165.111 17.1245C169.481 18.4971 173.754 20.0982 177.937 21.9621C179.362 22.5967 180.735 23.2844 182.247 23.6626" stroke="black" stroke-width="3" stroke-linecap="round"/>
<path d="M14.9552 25.7735C21.7509 20.9194 28.1586 16.1134 35.9181 12.7561C55.7083 4.19332 78.0858 2.34977 99.3929 2.06941C118.151 1.82259 136.526 2.6014 154.82 7.0096C158.28 7.84332 162.158 8.60422 165.36 10.2053" stroke="black" stroke-width="3" stroke-linecap="round"/>
</svg>
